<?xml version="1.0" standalone="no"?><!DOCTYPE svg PUBLIC "-//W3C//DTD SVG 1.1//EN" "http://www.w3.org/Graphics/SVG/1.1/DTD/svg11.dtd"><svg t="1681908926256" class="icon" viewBox="0 0 1024 1024" version="1.1" xmlns="http://www.w3.org/2000/svg" p-id="2611" xmlns:xlink="http://www.w3.org/1999/xlink" width="200" height="200"><path d="M920 416H616c-4.4 0-8 3.6-8 8v112c0 4.4 3.6 8 8 8h48c4.4 0 8-3.6 8-8v-56h60v320h-46c-4.4 0-8 3.6-8 8v48c0 4.4 3.6 8 8 8h164c4.4 0 8-3.6 8-8v-48c0-4.4-3.6-8-8-8h-46V480h60v56c0 4.4 3.6 8 8 8h48c4.4 0 8-3.6 8-8V424c0-4.4-3.6-8-8-8zM656 296V168c0-4.4-3.6-8-8-8H104c-4.4 0-8 3.6-8 8v128c0 4.4 3.6 8 8 8h56c4.4 0 8-3.6 8-8v-64h168v560h-92c-4.4 0-8 3.6-8 8v56c0 4.4 3.6 8 8 8h264c4.4 0 8-3.6 8-8v-56c0-4.4-3.6-8-8-8h-92V232h168v64c0 4.4 3.6 8 8 8h56c4.4 0 8-3.6 8-8z" fill="#fff" p-id="2612"></path></svg>