<?xml version="1.0" standalone="no"?><!DOCTYPE svg PUBLIC "-//W3C//DTD SVG 1.1//EN" "http://www.w3.org/Graphics/SVG/1.1/DTD/svg11.dtd"><svg t="1682850044150" class="icon" viewBox="0 0 1024 1024" version="1.1" xmlns="http://www.w3.org/2000/svg" p-id="5091" xmlns:xlink="http://www.w3.org/1999/xlink" width="200" height="200"><path d="M755.2 220.8h24c20.8 0 35.2-14.4 35.2-30.4V56c-1.6-19.2-16-32-35.2-32h-24c-20.8 0-35.2 14.4-35.2 33.6v132.8c0 16 14.4 30.4 35.2 30.4zM252.8 220.8h24c20.8 0 35.2-14.4 35.2-30.4V56c-1.6-19.2-16-32-35.2-32h-24c-20.8 0-35.2 14.4-35.2 33.6v132.8c0 16 14.4 30.4 35.2 30.4z" fill="currentColor" p-id="5092"></path><path d="M928 132.8h-68.8v57.6c0 43.2-35.2 76.8-78.4 76.8h-24c-43.2 0-78.4-33.6-78.4-76.8V132.8H356.8v57.6c0 43.2-35.2 76.8-78.4 76.8h-24c-43.2 0-78.4-33.6-78.4-76.8V132.8H104c-38.4 0-68.8 28.8-68.8 67.2v732.8c0 36.8 30.4 67.2 68.8 67.2h820.8c38.4 0 68.8-28.8 70.4-67.2V200c1.6-38.4-28.8-67.2-67.2-67.2z m-824 800V355.2h820.8s0 577.6 1.6 577.6H104z" fill="currentColor" p-id="5093"></path><path d="M360 456v169.6c0 52.8-4.8 91.2-9.6 116.8-8 24-25.6 51.2-51.2 76.8 20.8 14.4 38.4 30.4 59.2 48 20.8-19.2 35.2-36.8 43.2-54.4 9.6-20.8 16-46.4 22.4-76.8h201.6v32c0 20.8-9.6 30.4-35.2 30.4-22.4 0-46.4 0-76.8-1.6 6.4 20.8 12.8 44.8 16 67.2 46.4 0 78.4-1.6 99.2-1.6 20.8 0 35.2-8 44.8-20.8 9.6-14.4 16-33.6 16-59.2V456H360z m260.8 219.2H422.4c1.6-24 1.6-43.2 0-51.2h198.4v51.2z m0-108.8H422.4v-51.2h198.4v51.2z" fill="currentColor" p-id="5094"></path></svg>